<?xml version="1.0" encoding="UTF-8"?> <!-- Generator: Adobe Illustrator 24.1.3, SVG Export Plug-In . SVG Version: 6.00 Build 0) --> <svg xmlns="http://www.w3.org/2000/svg" xmlns:xlink="http://www.w3.org/1999/xlink" version="1.1" id="Layer_1" x="0px" y="0px" width="400px" height="92px" viewBox="0 0 400 92" style="enable-background:new 0 0 400 92;" xml:space="preserve"> <style type="text/css"> .st0{fill-rule:evenodd;clip-rule:evenodd;fill:#2F2482;} .st1{fill:#FFFFFF;} </style> <g> <path class="st0" d="M43.9,21.4L43.9,21.4c0.2,0,0.3,0.1,0.4,0.1c1.2,0.4,2.4,1,3.5,1.8c3.3,2.3,4.6,5.6,3.8,9.4 c-0.1,0.6-0.3,1.1-0.4,1.7C51,35,51.3,35.3,51.8,35c0.4-0.2,0.9-0.5,1.2-0.8c1.1-1,2.5-1.6,4-1.9c3.5-0.7,6.9-0.4,10.4,0.1v0.1 c0,0.1-0.1,0.1-0.1,0.2c-0.5,1.1-1,2.2-1.6,3.2c-1.6,2.9-3.2,5.8-5.6,8.2c-0.3,0.3-0.5,0.6-0.3,1c0.1,0.4,0.5,0.4,0.9,0.5 c0.7,0,1.2,0.3,1.8,0.6c1.4,0.9,2.6,2.1,3.3,3.7c0.5,1.1,0.8,2.3,0.5,3.5c-0.3,1.2-0.7,2.4-1.1,3.6C65,57,65,57,65,56.9 c-1.2-2.1-3-3.4-5.2-4.2c-2.7-1-5.4-1-8.2-0.6c-3,0.4-5.9,1.3-8.7,2.4c-4.2,1.7-8.1,4-11.4,7.2c-2.4,2.3-4.4,4.9-5.7,7.9 c-0.1,0.3-0.2,0.5-0.3,0.9c0-0.2-0.1-0.3-0.1-0.4c-0.1-0.5-0.1-1-0.2-1.5V67c0.1-0.5,0.1-1,0.2-1.5c0.3-2.6,1.1-5.1,2.1-7.6 c1.6-3.9,3.9-7.5,6.4-10.9c2.3-3.1,4.7-6.2,7-9.4c1.4-1.9,2.6-4,3.6-6.2c1.4-3.2,1.4-6.4-0.3-9.5C44,21.7,44,21.6,43.9,21.4 M46.3,1.2C21.5,1.2,1.5,21.3,1.5,46c0,24.7,20,44.8,44.8,44.8c24.7,0,44.8-20,44.8-44.8C91.1,21.3,71,1.2,46.3,1.2z"></path> <g> <path class="st1" d="M377,52.2c4.8,0,8.5-2.4,8.5-7.2v-0.1c0-4.1-3.8-5.6-7.1-6.6c-2.7-0.9-5.2-1.6-5.2-3.2V35 c0-1.3,1.2-2.3,3.2-2.3c1.9,0,4.2,0.8,6.5,2.2l2.1-3.7c-2.4-1.6-5.5-2.6-8.4-2.6c-4.5,0-8.1,2.6-8.1,6.9v0.1 c0,4.4,3.8,5.7,7.2,6.7c2.7,0.8,5.1,1.4,5.1,3.2v0.1c0,1.5-1.3,2.5-3.6,2.5c-2.3,0-5-0.9-7.5-2.8l-2.3,3.5 C370.2,51,373.8,52.2,377,52.2 M351.7,47.7c-4.1,0-7-3.4-7-7.3v-0.1c0-4,2.7-7.2,6.9-7.2c4.1,0,7,3.3,7,7.3v0.1 C358.6,44.4,355.9,47.7,351.7,47.7z M351.6,52.3c7.1,0,12.3-5.4,12.3-11.9v-0.1c0-6.5-5.2-11.8-12.2-11.8c-7,0-12.2,5.4-12.2,11.9 v0.1C339.5,47,344.6,52.3,351.6,52.3z M323.2,47.7c-4.1,0-7-3.4-7-7.3v-0.1c0-4,2.7-7.2,6.9-7.2c4.1,0,7,3.3,7,7.3v0.1 C330.2,44.4,327.5,47.7,323.2,47.7z M323.1,52.3c7.1,0,12.3-5.4,12.3-11.9v-0.1c0-6.5-5.2-11.8-12.2-11.8c-7,0-12.2,5.4-12.2,11.9 v0.1C311,47,316.2,52.3,323.1,52.3z M300.2,51.8h5.2V20.3h-5.2V51.8z M282.6,47.7c-3.6,0-6.7-2.9-6.7-7.3v-0.1 c0-4.4,3.1-7.3,6.7-7.3c3.6,0,6.5,2.9,6.5,7.3v0.1C289.2,44.9,286.2,47.7,282.6,47.7z M283.8,52.2c5.5,0,10.7-4.3,10.7-11.8v-0.1 c0-7.5-5.2-11.8-10.7-11.8c-3.7,0-6.1,1.9-7.8,4.3V20.3h-5.2v31.5h5.2v-3.5C277.7,50.3,280.1,52.2,283.8,52.2z M231,51.8h5.2V38.9 c0-3.5,2.1-5.6,5.2-5.6c3.1,0,4.9,2,4.9,5.6v12.9h5.2V37.3c0-5.3-3-8.8-8.1-8.8c-3.6,0-5.7,1.9-7.2,4V29H231V51.8z M204.1,52.2 c4.8,0,8.5-2.4,8.5-7.2v-0.1c0-4.1-3.8-5.6-7.1-6.6c-2.7-0.9-5.2-1.6-5.2-3.2V35c0-1.3,1.2-2.3,3.2-2.3c1.9,0,4.2,0.8,6.5,2.2 l2.1-3.7c-2.4-1.6-5.5-2.6-8.4-2.6c-4.6,0-8.1,2.6-8.1,6.9v0.1c0,4.4,3.8,5.7,7.2,6.7c2.7,0.8,5.1,1.4,5.1,3.2v0.1 c0,1.5-1.3,2.5-3.6,2.5c-2.3,0-5-0.9-7.5-2.8l-2.3,3.5C197.3,51,200.9,52.2,204.1,52.2z M171.1,51.8h5.2v-6.5l3.2-3.3l6.9,9.8h6.1 l-9.4-13.5l9.1-9.3h-6.4l-9.5,10.1V20.3h-5.2V51.8z M144.2,51.8h5.2V38.9c0-3.5,2.1-5.6,5.2-5.6c3.1,0,4.9,2,4.9,5.6v12.9h5.2 V37.3c0-5.3-3-8.8-8.1-8.8c-3.6,0-5.7,1.9-7.2,4V29h-5.2V51.8z M132.1,51.8h5.2V29h-5.2V51.8z M131.9,25.5h5.6v-5h-5.6V25.5z M114.6,47.7c-3.6,0-6.7-2.9-6.7-7.3v-0.1c0-4.4,3.1-7.3,6.7-7.3c3.6,0,6.5,2.9,6.5,7.3v0.1C121.1,44.9,118.2,47.7,114.6,47.7z M393,18.6c-3,0-5.5,2.5-5.5,5.5c0,3,2.5,5.5,5.5,5.5c3,0,5.5-2.5,5.5-5.5C398.5,21,396,18.6,393,18.6z M393,28.7 c-2.5,0-4.6-2.1-4.6-4.6c0-2.5,2.1-4.6,4.6-4.6c2.5,0,4.6,2.1,4.6,4.6C397.6,26.6,395.5,28.7,393,28.7z M394.5,24.8 c-0.2-0.2-0.4-0.3-0.6-0.5c0.5-0.1,0.9-0.3,1.1-0.5c0.3-0.3,0.4-0.6,0.4-1.1c0-0.3-0.1-0.6-0.3-0.9c-0.2-0.3-0.4-0.4-0.7-0.6 c-0.3-0.1-0.7-0.2-1.3-0.2h-2.4v5.8h1.2v-2.4h0.2c0.3,0,0.5,0,0.6,0.1c0.1,0,0.2,0.1,0.3,0.2c0.1,0.1,0.3,0.4,0.6,0.8l0.8,1.3h1.4 l-0.7-1.1C394.9,25.2,394.7,24.9,394.5,24.8z M392.7,23.5h-0.9V22h0.9c0.5,0,0.8,0,0.8,0c0.2,0,0.3,0.1,0.4,0.2 c0.1,0.1,0.2,0.3,0.2,0.5c0,0.2,0,0.3-0.1,0.4c-0.1,0.1-0.2,0.2-0.3,0.2C393.6,23.5,393.3,23.5,392.7,23.5z M102.8,58.7h5.2V48.2 c1.6,2.1,4,4,7.8,4c5.5,0,10.7-4.3,10.7-11.8v-0.1c0-7.5-5.2-11.8-10.7-11.8c-3.7,0-6.1,1.9-7.8,4.3V29h-5.2V58.7z"></path> <g> <path class="st1" d="M103.8,64.7h4.6c0.9,0,1.5,0.2,2.1,0.6c0.5,0.4,0.8,1,0.8,1.8c0,0.5-0.1,0.9-0.4,1.2c-0.2,0.3-0.6,0.6-1,0.8 v0c0.6,0.1,1,0.4,1.3,0.8c0.3,0.4,0.5,1,0.5,1.6c0,0.4-0.1,0.7-0.2,1.1s-0.3,0.6-0.6,0.8c-0.3,0.2-0.7,0.4-1.1,0.6 c-0.4,0.1-1,0.2-1.6,0.2h-4.4V64.7z M105.5,68.7h2.7c0.4,0,0.7-0.1,1-0.3c0.3-0.2,0.4-0.6,0.4-1c0-0.5-0.1-0.8-0.4-1 c-0.2-0.2-0.6-0.3-1-0.3h-2.7V68.7z M105.5,72.9h3c0.5,0,0.9-0.1,1.2-0.4s0.4-0.6,0.4-1.1c0-0.5-0.1-0.8-0.4-1.1 c-0.3-0.3-0.7-0.4-1.2-0.4h-3V72.9z"></path> <path class="st1" d="M121.3,64.7h6.9v1.4H123v2.5h4.8V70H123v2.8h5.3v1.4h-7V64.7z"></path> <path class="st1" d="M140.5,64.7h1.8l3.7,9.6h-1.8l-0.9-2.5h-3.8l-0.9,2.5h-1.7L140.5,64.7z M139.9,70.5h2.9l-1.4-4.1h0 L139.9,70.5z"></path> <path class="st1" d="M154.9,64.7h1.7v5.6c0,0.3,0,0.6,0,1c0,0.3,0.1,0.6,0.3,0.9s0.4,0.5,0.7,0.6c0.3,0.2,0.7,0.3,1.3,0.3 s1-0.1,1.3-0.3c0.3-0.2,0.5-0.4,0.7-0.6c0.1-0.3,0.2-0.6,0.3-0.9c0-0.3,0-0.7,0-1v-5.6h1.7v6.1c0,0.6-0.1,1.2-0.3,1.6 c-0.2,0.5-0.5,0.8-0.8,1.1c-0.3,0.3-0.8,0.5-1.2,0.7c-0.5,0.2-1,0.2-1.6,0.2s-1.1-0.1-1.6-0.2s-0.9-0.4-1.2-0.7 c-0.3-0.3-0.6-0.7-0.8-1.1c-0.2-0.5-0.3-1-0.3-1.6V64.7z"></path> <path class="st1" d="M171.9,64.7h7.7v1.4h-3v8.1h-1.7v-8.1h-3V64.7z"></path> <path class="st1" d="M191.4,70.5l-3.6-5.8h1.9l2.5,4.3l2.5-4.3h1.9l-3.6,5.8v3.8h-1.7V70.5z"></path> <path class="st1" d="M218.6,71.1c0,0.4,0.1,0.7,0.2,0.9c0.1,0.3,0.3,0.5,0.5,0.6c0.2,0.2,0.5,0.3,0.8,0.4 c0.3,0.1,0.6,0.1,0.9,0.1c0.4,0,0.7,0,0.9-0.1c0.3-0.1,0.5-0.2,0.6-0.3c0.2-0.1,0.3-0.3,0.3-0.5c0.1-0.2,0.1-0.3,0.1-0.5 c0-0.4-0.1-0.6-0.2-0.8c-0.2-0.2-0.3-0.3-0.5-0.4c-0.3-0.1-0.7-0.2-1.2-0.4s-1-0.3-1.7-0.4c-0.4-0.1-0.8-0.2-1-0.4 s-0.5-0.4-0.6-0.6c-0.2-0.2-0.3-0.4-0.3-0.7c-0.1-0.2-0.1-0.5-0.1-0.7c0-0.5,0.1-0.9,0.3-1.3c0.2-0.4,0.5-0.6,0.8-0.9 c0.3-0.2,0.7-0.4,1.1-0.5s0.8-0.2,1.3-0.2c0.5,0,1,0.1,1.4,0.2c0.4,0.1,0.8,0.3,1.2,0.6s0.6,0.6,0.8,1s0.3,0.8,0.3,1.3h-1.7 c0-0.6-0.3-1.1-0.6-1.3c-0.4-0.3-0.9-0.4-1.4-0.4c-0.2,0-0.4,0-0.6,0.1c-0.2,0-0.4,0.1-0.6,0.2c-0.2,0.1-0.3,0.2-0.4,0.4 c-0.1,0.2-0.2,0.4-0.2,0.6c0,0.3,0.1,0.6,0.3,0.8c0.2,0.2,0.5,0.3,0.8,0.4c0,0,0.2,0,0.4,0.1c0.2,0.1,0.5,0.1,0.8,0.2 c0.3,0.1,0.6,0.2,0.9,0.2c0.3,0.1,0.5,0.1,0.6,0.2c0.3,0.1,0.6,0.2,0.8,0.4c0.2,0.2,0.4,0.4,0.6,0.6s0.3,0.5,0.3,0.7 c0.1,0.3,0.1,0.5,0.1,0.8c0,0.5-0.1,1-0.3,1.4c-0.2,0.4-0.5,0.7-0.9,0.9c-0.4,0.2-0.8,0.4-1.2,0.5c-0.5,0.1-0.9,0.2-1.4,0.2 c-0.5,0-1.1-0.1-1.5-0.2c-0.5-0.1-0.9-0.3-1.3-0.6c-0.4-0.3-0.6-0.6-0.9-1.1c-0.2-0.4-0.3-0.9-0.3-1.5H218.6z"></path> <path class="st1" d="M236.9,64.7h1.8l3.7,9.6h-1.8l-0.9-2.5h-3.8l-0.9,2.5h-1.7L236.9,64.7z M236.3,70.5h2.9l-1.4-4.1h0 L236.3,70.5z"></path> <path class="st1" d="M251.4,64.7h1.7v8.1h4.9v1.4h-6.5V64.7z"></path> <path class="st1" d="M271.3,64.5c0.7,0,1.4,0.1,1.9,0.4c0.6,0.3,1,0.6,1.4,1.1c0.4,0.5,0.7,1,0.9,1.6c0.2,0.6,0.3,1.3,0.3,1.9 c0,0.7-0.1,1.3-0.3,1.9s-0.5,1.1-0.9,1.6c-0.4,0.5-0.9,0.8-1.4,1.1c-0.6,0.3-1.2,0.4-1.9,0.4c-0.7,0-1.4-0.1-1.9-0.4 c-0.6-0.3-1-0.6-1.4-1.1c-0.4-0.5-0.7-1-0.9-1.6c-0.2-0.6-0.3-1.3-0.3-1.9c0-0.7,0.1-1.3,0.3-1.9c0.2-0.6,0.5-1.1,0.9-1.6 c0.4-0.5,0.9-0.8,1.4-1.1C270,64.6,270.6,64.5,271.3,64.5z M271.3,65.8c-0.5,0-0.9,0.1-1.3,0.3c-0.4,0.2-0.7,0.5-0.9,0.8 c-0.2,0.3-0.4,0.7-0.5,1.2c-0.1,0.4-0.2,0.9-0.2,1.3c0,0.5,0.1,0.9,0.2,1.3c0.1,0.4,0.3,0.8,0.5,1.2c0.2,0.3,0.5,0.6,0.9,0.8 c0.4,0.2,0.8,0.3,1.3,0.3c0.5,0,0.9-0.1,1.3-0.3c0.4-0.2,0.7-0.5,0.9-0.8s0.4-0.7,0.5-1.2s0.2-0.9,0.2-1.3c0-0.5-0.1-0.9-0.2-1.3 s-0.3-0.8-0.5-1.2s-0.5-0.6-0.9-0.8C272.3,65.9,271.8,65.8,271.3,65.8z"></path> <path class="st1" d="M285.5,64.7h1.8l4.4,7h0v-7h1.6v9.6h-1.8l-4.4-7h0v7h-1.6V64.7z"></path> <path class="st1" d="M315.1,64.7h1.8l4.4,7h0v-7h1.6v9.6h-1.8l-4.4-7h0v7h-1.6V64.7z"></path> <path class="st1" d="M346,71.1c0,0.4,0.1,0.7,0.2,0.9c0.1,0.3,0.3,0.5,0.5,0.6c0.2,0.2,0.5,0.3,0.8,0.4c0.3,0.1,0.6,0.1,0.9,0.1 c0.4,0,0.7,0,0.9-0.1c0.3-0.1,0.5-0.2,0.6-0.3c0.2-0.1,0.3-0.3,0.3-0.5c0.1-0.2,0.1-0.3,0.1-0.5c0-0.4-0.1-0.6-0.2-0.8 c-0.2-0.2-0.3-0.3-0.5-0.4c-0.3-0.1-0.7-0.2-1.2-0.4s-1-0.3-1.7-0.4c-0.4-0.1-0.8-0.2-1-0.4s-0.5-0.4-0.6-0.6 c-0.2-0.2-0.3-0.4-0.3-0.7c-0.1-0.2-0.1-0.5-0.1-0.7c0-0.5,0.1-0.9,0.3-1.3c0.2-0.4,0.5-0.6,0.8-0.9c0.3-0.2,0.7-0.4,1.1-0.5 s0.8-0.2,1.3-0.2c0.5,0,1,0.1,1.4,0.2c0.4,0.1,0.8,0.3,1.2,0.6s0.6,0.6,0.8,1s0.3,0.8,0.3,1.3h-1.7c0-0.6-0.3-1.1-0.6-1.3 c-0.4-0.3-0.9-0.4-1.4-0.4c-0.2,0-0.4,0-0.6,0.1c-0.2,0-0.4,0.1-0.6,0.2c-0.2,0.1-0.3,0.2-0.4,0.4c-0.1,0.2-0.2,0.4-0.2,0.6 c0,0.3,0.1,0.6,0.3,0.8c0.2,0.2,0.5,0.3,0.8,0.4c0,0,0.2,0,0.4,0.1c0.2,0.1,0.5,0.1,0.8,0.2c0.3,0.1,0.6,0.2,0.9,0.2 c0.3,0.1,0.5,0.1,0.6,0.2c0.3,0.1,0.6,0.2,0.8,0.4c0.2,0.2,0.4,0.4,0.6,0.6s0.3,0.5,0.3,0.7c0.1,0.3,0.1,0.5,0.1,0.8 c0,0.5-0.1,1-0.3,1.4c-0.2,0.4-0.5,0.7-0.9,0.9c-0.4,0.2-0.8,0.4-1.2,0.5c-0.5,0.1-0.9,0.2-1.4,0.2c-0.5,0-1.1-0.1-1.5-0.2 c-0.5-0.1-0.9-0.3-1.3-0.6c-0.4-0.3-0.6-0.6-0.9-1.1c-0.2-0.4-0.3-0.9-0.3-1.5H346z"></path> <path class="st1" d="M361.7,64.7h4.2c0.7,0,1.2,0.1,1.7,0.3c0.4,0.2,0.8,0.4,1,0.7c0.2,0.3,0.4,0.6,0.5,1c0.1,0.3,0.1,0.7,0.1,1 s0,0.6-0.1,1s-0.2,0.7-0.5,1c-0.2,0.3-0.6,0.5-1,0.7c-0.4,0.2-1,0.3-1.7,0.3h-2.5v3.7h-1.7V64.7z M363.4,69.2h2.5 c0.2,0,0.4,0,0.6-0.1c0.2-0.1,0.4-0.1,0.5-0.3c0.2-0.1,0.3-0.3,0.4-0.5c0.1-0.2,0.2-0.5,0.2-0.8c0-0.3,0-0.6-0.1-0.8 s-0.2-0.4-0.4-0.5c-0.2-0.1-0.3-0.2-0.5-0.2c-0.2,0-0.4-0.1-0.6-0.1h-2.5V69.2z"></path> <path class="st1" d="M380.3,64.7h1.8l3.7,9.6H384l-0.9-2.5h-3.8l-0.9,2.5h-1.7L380.3,64.7z M379.7,70.5h2.9l-1.4-4.1h0 L379.7,70.5z"></path> </g> </g> </g> </svg> 